# xmcd
#
# Track frame offsets:
#	183
#	21783
#	46530
#
# Disc length: 819 seconds
#
# Revision: 0
# Processed by: cddbd v1.5.1PL0 Copyright (c) Steve Scherf et al.
# Submitted via: dBpowerAMP V4.0
#
DISCID=15033103
DTITLE=Various Artist - Love Is (Single)
DYEAR=1992
DGENRE=R&B
TTITLE0=Love Is - Vanessa Williams and Brain McKnight
TTITLE1=After The Love - Brain McKnight
TTITLE2=My Prayer - Brain McKnight
EXTD=
EXTT0=
EXTT1=
EXTT2=
PLAYORDER=
